<svg xmlns="http://www.w3.org/2000/svg" width="19" height="13">
  <path fill="#FFF" fill-rule="evenodd" d="M5.875.184c1.49-.14 2.942.493 4.07 1.524-.462.556-.933 1.106-1.436 1.62-1-.66-2.19-1.16-3.36-.715-1.87.582-3.01 2.997-2.31 4.997.57 2.088 2.9 3.235 4.72 2.357.94-.37 1.56-1.32 1.84-2.343-1.09-.024-2.17-.01-3.25-.04-.01-.705-.01-1.405 0-2.013 1.8-.09 3.61-.1 5.39 0 .132 1.64 0 3.5-1.12 4.87-1.41 1.98-4 2.56-6.11 1.78C2.08 11.41.45 8.95.5 6.36.386 3.172 2.947.222 5.874.184zM16.4 2.77c.003.543-.002 1.56 0 2.1.537.007 1.542-.002 2.078 0v1.4c-.536.004-1.54-.002-2.077 0 0 .546.01 1.557 0 2.1-.53-.002-.85 0-1.38 0 0-.543.01-1.557 0-2.1-.53-.004-1.54.004-2.07 0v-1.4c.54-.002 1.54.007 2.08 0 .01-.54 0-1.557 0-2.1h1.38z"/>
</svg>
