<?xml version="1.0" encoding="utf-8"?>
<!-- Generator: Adobe Illustrator 17.1.0, SVG Export Plug-In . SVG Version: 6.00 Build 0)  -->
<!DOCTYPE svg PUBLIC "-//W3C//DTD SVG 1.1//EN" "http://www.w3.org/Graphics/SVG/1.1/DTD/svg11.dtd">
<svg version="1.1" id="Layer_1" xmlns="http://www.w3.org/2000/svg" xmlns:xlink="http://www.w3.org/1999/xlink" x="0px" y="0px"
	 width="96px" height="96px" viewBox="0 0 96 96" enable-background="new 0 0 96 96" xml:space="preserve">
<path d="M24,21c0,1.7-1.3,3-3,3H3c-1.7,0-3-1.3-3-3V3c0-1.7,1.3-3,3-3h18c1.7,0,3,1.3,3,3V21z"/>
<path id="path2998" fill="#FFFFFF" d="M18.5,11.4h-6.4v1.9h4.5c-0.2,2.7-2.4,3.8-4.5,3.8c-2.7,0-5-2.1-5-5.1c0-2.8,2.2-5.1,5-5.1
	c2.2,0,3.4,1.3,3.4,1.3l1.3-1.4c0,0-1.7-1.9-4.8-1.9c-3.9,0.1-7,3.4-7,7c0,3.5,2.9,7,7.1,7c3.8,0,6.5-2.6,6.5-6.3
	C18.6,11.9,18.5,11.4,18.5,11.4L18.5,11.4z"/>
</svg>
