<svg width="68" height="27" viewBox="0 0 68 27" xmlns="http://www.w3.org/2000/svg"><title>яндекс</title><g fill="none" fill-rule="evenodd"><path d="M9.352 14.314V23h2.44V.334H8.147c-3.582 0-6.594 2.378-6.594 7.133 0 3.392 1.332 5.23 3.329 6.245L.634 23h2.821l3.868-8.686h2.029zm0-2.029h-1.3c-2.124 0-3.868-1.173-3.868-4.818 0-3.772 1.902-5.072 3.868-5.072h1.3v9.89z" fill="#F00"/><path d="M64.7 23.222c1.458 0 2.472-.476 3.328-1.205l-.57-1.838c-.571.507-1.49.982-2.695.982-1.997 0-2.948-2.282-2.948-6.276 0-4.026 1.268-6.023 3.043-6.023 1.015 0 1.966.539 2.631 1.11l.349-2.347c-.697-.443-1.522-.824-2.948-.824-3.74 0-5.674 3.202-5.674 8.21 0 5.453 2.06 8.21 5.484 8.21zM56.204 23H58.9l-4.533-8.464 3.962-7.513h-2.504l-3.836 7.386V7.023h-2.473V23h2.473v-7.957zM21.112 7.023v6.784h-3.677V7.023h-2.473V23h2.473v-7.164h3.677V23h2.441V7.023zM47.011 21.922l-.57-1.902c-.634.444-1.744 1.078-3.139 1.078-1.965 0-2.98-1.902-2.98-5.516h6.657V14.22c0-5.42-1.743-7.418-4.406-7.418-3.392 0-4.818 3.74-4.818 8.876 0 4.914 2.029 7.545 5.325 7.545 1.585 0 2.917-.507 3.931-1.3zM42.573 8.83c1.427 0 1.87 1.997 1.87 4.723h-4.089c.159-2.853.698-4.723 2.22-4.723zM36.265 20.971h-1.268V7.023h-7.418v1.363c0 4.248-.158 9.193-1.617 12.585h-.982v5.167h2.219V23h6.847v3.138h2.219v-5.167zm-3.71 0h-4.247c1.332-3.392 1.49-8.305 1.49-11.665V9.02h2.758v11.951z" fill="#000"/></g></svg>