<svg width="21px" height="21px" viewBox="0 0 21 21" version="1.1" xmlns="http://www.w3.org/2000/svg" xmlns:xlink="http://www.w3.org/1999/xlink">
    <path d="M6.16193415,16.8759773 C5.83745983,17.0703363 5.71121983,17.0188521 5.79946284,16.6562457 L6.79238424,12.0677472 C6.82963129,11.9147726 6.81188269,11.855652 6.69014233,11.7534226 L3.17292077,8.59244046 C2.88419363,8.34979962 2.96718706,8.27639152 3.34615705,8.24658488 L8.03778565,7.68149036 C8.197523,7.66892722 8.28576602,7.60487989 8.34726115,7.45978806 L10.2871076,3.25828318 C10.433096,2.91390561 10.5435873,2.91390561 10.6895757,3.25828318 L12.6576699,7.45978806 C12.7191651,7.60487989 12.8074081,7.66892722 12.9671454,7.68149036 L17.6447751,8.24658488 C18.0237451,8.27639152 18.1207374,8.30767618 17.8320103,8.55031703 L14.3147887,11.7534226 C14.1930484,11.855652 14.1752998,11.9147726 14.2125468,12.0677472 L15.2549643,16.649102 C15.3432073,17.0119547 15.1534723,17.0912749 14.828998,16.8969159 L10.6743269,14.6035288 C10.5373378,14.5217453 10.4675933,14.5217453 10.3308541,14.6035288 L6.16193415,16.8759773 Z" id="path-1" stroke="#00AAFF" stroke-width="7.2%" fill="#fff"></path>
</svg>