<svg xmlns="http://www.w3.org/2000/svg" width="9" height="15">
  <path fill="#FFF" fill-rule="evenodd" d="M4.125 2.154c-.84 0-1.522.683-1.522 1.522 0 .84.683 1.52 1.522 1.52.838 0 1.522-.68 1.522-1.52s-.684-1.522-1.522-1.522zm0 5.197C2.097 7.35.45 5.71.45 3.68S2.096 0 4.124 0 7.8 1.65 7.8 3.676c0 2.027-1.648 3.675-3.675 3.675zm-1.487 3c-.75-.17-1.47-.46-2.135-.88C0 9.15-.15 8.488.166 7.98s.98-.655 1.485-.338c1.51.947 3.45.946 4.95 0 .51-.317 1.17-.166 1.49.338.32.504.17 1.168-.333 1.485-.665.417-1.386.714-2.135.884l2.05 2.05c.42.42.42 1.1 0 1.52-.21.21-.487.315-.762.315-.276 0-.552-.104-.762-.314l-2.02-2.02-2.02 2.02c-.42.42-1.1.42-1.52 0-.422-.42-.422-1.102 0-1.522l2.055-2.05z"/>
</svg>
