<svg xmlns="http://www.w3.org/2000/svg" width="12" height="13">
  <path fill="#FFF" fill-rule="evenodd" d="M6.868 7.445c-.208-.077-.49-.122-.848-.127-.36-.012-.842-.012-1.443-.012h-.624v3.344h.18c.882 0 1.494-.005 1.83-.017.338-.01.686-.094 1.034-.244.31-.136.534-.325.674-.58.14-.256.216-.545.216-.867 0-.41-.084-.733-.252-.966-.17-.24-.427-.412-.764-.535zM5.598 5c.23-.01.472-.07.72-.187.27-.128.46-.3.56-.523.102-.222.153-.477.153-.772 0-.216-.053-.433-.166-.66-.112-.228-.286-.39-.522-.495-.224-.094-.49-.15-.79-.155-.304-.01-.76-.01-1.366-.01H3.95v2.82h.425c.584 0 .99-.005 1.225-.017zm2.573 7.714H.746V.084H7.43s2.97 0 2.97 2.768c0 2.766-1.78 2.933-1.78 2.933.83.172 2.524 1.358 2.524 3.215 0 3.714-2.972 3.714-2.972 3.714z"/>
</svg>
