<svg width="79" height="28" viewBox="0 0 79 28" xmlns="http://www.w3.org/2000/svg"><title>паспорт</title><path d="M8.973 23h1.585V.334H.636V23h1.585V1.634h6.752V23zm8.306-.888c-1.522 0-2.505-1.3-2.505-3.55 0-2.79 1.268-3.994 3.9-3.994h1.711v4.406c-.57 1.712-1.616 3.138-3.106 3.138zm3.55.888h1.363c-.19-.602-.348-1.839-.348-2.948v-8.718c0-3.17-1.49-4.628-4.121-4.628-1.807 0-3.139.793-3.773 1.617l.412 1.426c.761-1.11 1.997-1.743 3.36-1.743 1.744 0 2.663 1.046 2.663 3.487v1.997h-1.743c-3.455 0-5.326 1.775-5.326 5.199 0 2.916 1.49 4.628 3.646 4.628 1.585 0 2.726-.951 3.487-2.473.095 1.142.253 1.744.38 2.156zm8.908-.983c-2.473 0-3.582-2.6-3.582-6.974 0-4.501 1.14-7.069 3.582-7.069 1.363 0 2.377.824 3.075 1.807l.412-1.585c-.698-.856-1.839-1.49-3.487-1.49-3.265 0-5.072 3.075-5.072 8.337 0 5.2 1.838 8.274 5.04 8.274 2.504 0 3.677-1.775 3.677-1.775l-.475-1.237s-1.11 1.712-3.17 1.712zM42.544 23h1.458V7.023h-8.21V23h1.49V8.228h5.262V23zm9.066.317c2.758 0 4.882-3.107 4.882-8.4 0-5.485-2.124-8.21-4.882-8.21-2.758 0-4.882 3.074-4.882 8.4 0 5.452 2.124 8.21 4.882 8.21zm0-1.205c-1.87 0-3.392-2.124-3.392-7.1 0-4.85 1.522-7.07 3.392-7.07 1.87 0 3.392 2.061 3.392 7.07 0 4.818-1.522 7.1-3.392 7.1zm12.046 0c-1.427 0-2.314-.634-2.948-1.933v-8.94c.697-1.712 1.902-3.233 3.328-3.233 1.839 0 2.98 2.472 2.98 6.657 0 5.04-1.331 7.45-3.36 7.45zm-.095 1.173c2.98 0 4.945-2.884 4.945-8.749 0-4.628-1.553-7.83-4.216-7.83-1.775 0-2.948 1.427-3.646 2.948l-.126-2.63h-1.3v20.921h1.49V21.89a3.62 3.62 0 0 0 2.853 1.395zM78.46 8.26V7.023h-8.876V8.26h3.709V23h1.49V8.26h3.677z" fill="#000" fill-rule="evenodd"/></svg>